<svg width="currentWidth" height="currentHeight" viewBox="0 0 36 36" fill="none" xmlns="http://www.w3.org/2000/svg">
<g clip-path="url(#clip0_628_1136)">
<path d="M16.125 19.875V16.125H19.875V19.875H16.125Z" fill="currentColor"></path>
<path fill-rule="evenodd" clip-rule="evenodd" d="M13 11.9583C12.4247 11.9583 11.9583 12.4247 11.9583 13V23C11.9583 23.5753 12.4247 24.0417 13 24.0417H23C23.5753 24.0417 24.0417 23.5753 24.0417 23V13C24.0417 12.4247 23.5753 11.9583 23 11.9583H13ZM15.5 14.875C15.1548 14.875 14.875 15.1548 14.875 15.5V20.5C14.875 20.8452 15.1548 21.125 15.5 21.125H20.5C20.8452 21.125 21.125 20.8452 21.125 20.5V15.5C21.125 15.1548 20.8452 14.875 20.5 14.875H15.5Z" fill="currentColor"></path>
<path fill-rule="evenodd" clip-rule="evenodd" d="M0 12C0 5.37258 5.37258 0 12 0H24C30.6274 0 36 5.37258 36 12V24C36 30.6274 30.6274 36 24 36H12C5.37258 36 0 30.6274 0 24V12ZM10.7083 20.2917V23C10.7083 24.2657 11.7343 25.2917 13 25.2917H14.875V27.1667C14.875 27.5118 15.1548 27.7917 15.5 27.7917C15.8452 27.7917 16.125 27.5118 16.125 27.1667V25.2917H19.875V27.1667C19.875 27.5118 20.1548 27.7917 20.5 27.7917C20.8452 27.7917 21.125 27.5118 21.125 27.1667V25.2917H23C24.2657 25.2917 25.2917 24.2657 25.2917 23V20.2917H27.1667C27.5118 20.2917 27.7917 20.0118 27.7917 19.6667C27.7917 19.3215 27.5118 19.0417 27.1667 19.0417H25.2917V16.125H27.1667C27.5118 16.125 27.7917 15.8452 27.7917 15.5C27.7917 15.1548 27.5118 14.875 27.1667 14.875H25.2917V13C25.2917 11.7343 24.2657 10.7083 23 10.7083H21.125V8.83333C21.125 8.48816 20.8452 8.20833 20.5 8.20833C20.1548 8.20833 19.875 8.48816 19.875 8.83333V10.7083H16.125V8.83333C16.125 8.48816 15.8452 8.20833 15.5 8.20833C15.1548 8.20833 14.875 8.48816 14.875 8.83333V10.7083H13C11.7343 10.7083 10.7083 11.7343 10.7083 13V14.875H8.83333C8.48816 14.875 8.20833 15.1548 8.20833 15.5C8.20833 15.8452 8.48816 16.125 8.83333 16.125H10.7083V19.0417H8.83333C8.48816 19.0417 8.20833 19.3215 8.20833 19.6667C8.20833 20.0118 8.48816 20.2917 8.83333 20.2917H10.7083Z" fill="currentColor"></path>
</g>
<defs>
<clipPath id="clip0_628_1136">
<rect width="36" height="36" fill="currentColor"></rect>
</clipPath>
</defs>
</svg>