<svg width="currentWidth" height="currentHeight" viewBox="0 0 36 36" fill="none" xmlns="http://www.w3.org/2000/svg">
<g clip-path="url(#clip0_628_1130)">
<path d="M12.7917 13.8333C12.7917 12.3376 14.0042 11.125 15.5 11.125C16.9958 11.125 18.2083 12.3376 18.2083 13.8333C18.2083 15.3291 16.9958 16.5417 15.5 16.5417C14.0042 16.5417 12.7917 15.3291 12.7917 13.8333Z" fill="currentColor"></path>
<path fill-rule="evenodd" clip-rule="evenodd" d="M0 12C0 5.37258 5.37258 0 12 0H24C30.6274 0 36 5.37258 36 12V24C36 30.6274 30.6274 36 24 36H12C5.37258 36 0 30.6274 0 24V12ZM9.3677 21.0344C10.11 20.292 11.1169 19.875 12.1667 19.875H18.8333C19.8831 19.875 20.89 20.292 21.6323 21.0344C22.3746 21.7767 22.7917 22.7835 22.7917 23.8333V25.5C22.7917 25.8452 22.5118 26.125 22.1667 26.125C21.8215 26.125 21.5417 25.8452 21.5417 25.5V23.8333C21.5417 23.115 21.2563 22.4262 20.7484 21.9183C20.2405 21.4103 19.5516 21.125 18.8333 21.125H12.1667C11.4484 21.125 10.7595 21.4103 10.2516 21.9183C9.74367 22.4262 9.45833 23.115 9.45833 23.8333V25.5C9.45833 25.8452 9.17851 26.125 8.83333 26.125C8.48816 26.125 8.20833 25.8452 8.20833 25.5V23.8333C8.20833 22.7835 8.62537 21.7767 9.3677 21.0344ZM15.5 9.875C13.3139 9.875 11.5417 11.6472 11.5417 13.8333C11.5417 16.0195 13.3139 17.7917 15.5 17.7917C17.6861 17.7917 19.4583 16.0195 19.4583 13.8333C19.4583 11.6472 17.6861 9.875 15.5 9.875ZM24.0615 20.4521C24.1478 20.1179 24.4887 19.9169 24.8229 20.0032C25.6721 20.2224 26.4244 20.7175 26.9618 21.4107C27.4991 22.1038 27.791 22.9558 27.7917 23.8329V25.5C27.7917 25.8452 27.5118 26.125 27.1667 26.125C26.8215 26.125 26.5417 25.8452 26.5417 25.5V23.8338C26.5412 23.2338 26.3415 22.6507 25.9738 22.1765C25.6062 21.7022 25.0914 21.3635 24.5104 21.2135C24.1762 21.1272 23.9752 20.7863 24.0615 20.4521ZM21.4884 10.0029C21.154 9.91725 20.8135 10.1189 20.7279 10.4533C20.6422 10.7877 20.8439 11.1282 21.1783 11.2138C21.7609 11.363 22.2772 11.7018 22.646 12.1768C23.0147 12.6519 23.2149 13.2361 23.2149 13.8375C23.2149 14.4389 23.0147 15.0231 22.646 15.4982C22.2772 15.9732 21.7609 16.312 21.1783 16.4612C20.8439 16.5468 20.6422 16.8873 20.7279 17.2217C20.8135 17.5561 21.154 17.7578 21.4884 17.6721C22.3398 17.4541 23.0945 16.9589 23.6334 16.2646C24.1723 15.5703 24.4649 14.7164 24.4649 13.8375C24.4649 12.9586 24.1723 12.1047 23.6334 11.4104C23.0945 10.7161 22.3398 10.2209 21.4884 10.0029Z" fill="currentColor"></path>
</g>
<defs>
<clipPath id="clip0_628_1130">
<rect width="36" height="36" fill="currentColor"></rect>
</clipPath>
</defs>
</svg>