<svg width="currentWidth" height="currentHeight" viewBox="0 0 36 36" fill="none" xmlns="http://www.w3.org/2000/svg">
<g clip-path="url(#clip0_628_1108)">
<path d="M18 17.3012L11.0642 13.8333L18 10.3654L24.9358 13.8333L18 17.3012Z" fill="currentColor"></path>
<path fill-rule="evenodd" clip-rule="evenodd" d="M12 0C5.37258 0 0 5.37258 0 12V24C0 30.6274 5.37258 36 12 36H24C30.6274 36 36 30.6274 36 24V12C36 5.37258 30.6274 0 24 0H12ZM18.2795 9.10765C18.1036 9.01967 17.8964 9.01967 17.7205 9.10765L9.38716 13.2743C9.17542 13.3802 9.04167 13.5966 9.04167 13.8333C9.04167 14.0701 9.17542 14.2865 9.38716 14.3924L17.7205 18.559C17.8964 18.647 18.1036 18.647 18.2795 18.559L26.6128 14.3924C26.8246 14.2865 26.9583 14.0701 26.9583 13.8333C26.9583 13.5966 26.8246 13.3802 26.6128 13.2743L18.2795 9.10765ZM9.10765 21.8872C9.26202 21.5784 9.63744 21.4533 9.94618 21.6077L18 25.6346L26.0538 21.6077C26.3626 21.4533 26.738 21.5784 26.8923 21.8872C27.0467 22.1959 26.9216 22.5713 26.6128 22.7257L18.2795 26.8924C18.1036 26.9803 17.8964 26.9803 17.7205 26.8924L9.38716 22.7257C9.07842 22.5713 8.95328 22.1959 9.10765 21.8872ZM9.94618 17.441C9.63744 17.2866 9.26202 17.4118 9.10765 17.7205C8.95328 18.0292 9.07842 18.4046 9.38716 18.559L17.7205 22.7257C17.8964 22.8137 18.1036 22.8137 18.2795 22.7257L26.6128 18.559C26.9216 18.4046 27.0467 18.0292 26.8923 17.7205C26.738 17.4118 26.3626 17.2866 26.0538 17.441L18 21.4679L9.94618 17.441Z" fill="currentColor"></path>
</g>
<defs>
<clipPath id="clip0_628_1108">
<rect width="36" height="36" fill="currentColor"></rect>
</clipPath>
</defs>
</svg>